<?xml version="1.0" encoding="UTF-8" standalone="no"?>
<!-- Created with Inkscape (http://www.inkscape.org/) -->

<svg
   width="68.544716mm"
   height="18.605276mm"
   viewBox="0 0 68.544716 18.605276"
   version="1.1"
   id="svg1"
   xml:space="preserve"
   xmlns:inkscape="http://www.inkscape.org/namespaces/inkscape"
   xmlns:sodipodi="http://sodipodi.sourceforge.net/DTD/sodipodi-0.dtd"
   xmlns="http://www.w3.org/2000/svg"
   xmlns:svg="http://www.w3.org/2000/svg"><sodipodi:namedview
     id="namedview1"
     pagecolor="#505050"
     bordercolor="#eeeeee"
     borderopacity="1"
     inkscape:showpageshadow="0"
     inkscape:pageopacity="0"
     inkscape:pagecheckerboard="0"
     inkscape:deskcolor="#505050"
     inkscape:document-units="mm" /><defs
     id="defs1"><clipPath
       clipPathUnits="userSpaceOnUse"
       id="clipPath6"><path
         d="M 0,346.32 V 0.125 H 1272.12 V 346.32"
         transform="translate(1.6360087e-5)"
         clip-rule="evenodd"
         id="path6" /></clipPath><clipPath
       clipPathUnits="userSpaceOnUse"
       id="clipPath7"><path
         d="M 0,346.32 V 0.125 H 1272.12 V 346.32"
         transform="translate(1.6360087e-5)"
         clip-rule="evenodd"
         id="path7" /></clipPath><clipPath
       clipPathUnits="userSpaceOnUse"
       id="clipPath8"><path
         d="M 0,346.32 V 0.125 H 1272.12 V 346.32"
         transform="translate(1.6360087e-5)"
         clip-rule="evenodd"
         id="path8" /></clipPath><clipPath
       clipPathUnits="userSpaceOnUse"
       id="clipPath9"><path
         d="M 0,346.32 V 0.125 H 1272.12 V 346.32"
         transform="translate(1.6360087e-5)"
         clip-rule="evenodd"
         id="path9" /></clipPath><clipPath
       clipPathUnits="userSpaceOnUse"
       id="clipPath10"><path
         d="M 0,346.32 V 0.125 H 1272.12 V 346.32"
         transform="translate(1.6360087e-5)"
         clip-rule="evenodd"
         id="path10" /></clipPath><clipPath
       clipPathUnits="userSpaceOnUse"
       id="clipPath11"><path
         d="M 0,346.32 V 0.125 H 1272.12 V 346.32"
         transform="translate(1.6360087e-5)"
         clip-rule="evenodd"
         id="path11" /></clipPath><clipPath
       clipPathUnits="userSpaceOnUse"
       id="clipPath12"><path
         d="M 0,346.32 V 0.125 H 1272.12 V 346.32"
         transform="translate(1.6360087e-5)"
         clip-rule="evenodd"
         id="path12" /></clipPath><clipPath
       clipPathUnits="userSpaceOnUse"
       id="clipPath13"><path
         d="M 0,346.32 V 0.125 H 1272.12 V 346.32"
         transform="translate(1.6360087e-5)"
         clip-rule="evenodd"
         id="path13" /></clipPath><clipPath
       clipPathUnits="userSpaceOnUse"
       id="clipPath14"><path
         d="M 0,346.32 V 0.125 H 1272.12 V 346.32"
         transform="translate(1.6360087e-5)"
         clip-rule="evenodd"
         id="path14" /></clipPath><clipPath
       clipPathUnits="userSpaceOnUse"
       id="clipPath15"><path
         d="M 0,346.32 V 0.125 H 1272.12 V 346.32"
         transform="translate(1.6360087e-5)"
         clip-rule="evenodd"
         id="path15" /></clipPath><clipPath
       clipPathUnits="userSpaceOnUse"
       id="clipPath16"><path
         d="M 0,346.32 V 0.125 H 1272.12 V 346.32"
         transform="translate(1.6360087e-5)"
         clip-rule="evenodd"
         id="path16" /></clipPath><clipPath
       clipPathUnits="userSpaceOnUse"
       id="clipPath17"><path
         d="M 0,346.32 V 0.125 H 1272.12 V 346.32"
         transform="translate(1.6360087e-5)"
         clip-rule="evenodd"
         id="path17" /></clipPath><clipPath
       clipPathUnits="userSpaceOnUse"
       id="clipPath18"><path
         d="M 0,346.32 V 0.125 H 1272.12 V 346.32"
         transform="translate(1.6360087e-5)"
         clip-rule="evenodd"
         id="path18" /></clipPath><clipPath
       clipPathUnits="userSpaceOnUse"
       id="clipPath19"><path
         d="M 0,346.32 V 0.125 H 1272.12 V 346.32"
         transform="translate(1.6360087e-5)"
         clip-rule="evenodd"
         id="path19" /></clipPath><clipPath
       clipPathUnits="userSpaceOnUse"
       id="clipPath20"><path
         d="M 0,346.32 V 0.125 H 1272.12 V 346.32"
         transform="translate(1.6360087e-5)"
         clip-rule="evenodd"
         id="path20" /></clipPath><clipPath
       clipPathUnits="userSpaceOnUse"
       id="clipPath21"><path
         d="M 0,346.32 V 0.125 H 1272.12 V 346.32"
         transform="translate(1.6360087e-5)"
         clip-rule="evenodd"
         id="path21" /></clipPath><clipPath
       clipPathUnits="userSpaceOnUse"
       id="clipPath22"><path
         d="M 0,346.32 V 0.125 H 1272.12 V 346.32"
         transform="translate(1.6360087e-5)"
         clip-rule="evenodd"
         id="path22" /></clipPath><clipPath
       clipPathUnits="userSpaceOnUse"
       id="clipPath23"><path
         d="M 0,346.32 V 0.125 H 1272.12 V 346.32"
         transform="translate(1.6360087e-5)"
         clip-rule="evenodd"
         id="path23" /></clipPath><clipPath
       clipPathUnits="userSpaceOnUse"
       id="clipPath24"><path
         d="M 0,346.32 V 0.125 H 1272.12 V 346.32"
         transform="translate(1.6360087e-5)"
         clip-rule="evenodd"
         id="path24" /></clipPath><clipPath
       clipPathUnits="userSpaceOnUse"
       id="clipPath25"><path
         d="M 0,346.32 V 0.125 H 1272.12 V 346.32"
         transform="translate(1.6360087e-5)"
         clip-rule="evenodd"
         id="path25" /></clipPath><clipPath
       clipPathUnits="userSpaceOnUse"
       id="clipPath26"><path
         d="M 0,346.32 V 0.125 H 1272.12 V 346.32"
         transform="translate(1.6360087e-5)"
         clip-rule="evenodd"
         id="path26" /></clipPath><clipPath
       clipPathUnits="userSpaceOnUse"
       id="clipPath48"><path
         d="m 200.5,771.12 h 194.3 v 52.85 H 200.5 Z"
         transform="matrix(1.3333333,0,0,-1.3333333,0,1122.56)"
         clip-rule="evenodd"
         id="path48" /></clipPath></defs><g
     inkscape:label="Camada 1"
     inkscape:groupmode="layer"
     id="layer1"
     transform="translate(-70.636293,-139.19737)"><g
       id="g47"
       clip-path="url(#clipPath48)"
       transform="matrix(0.26458333,0,0,0.26458333,-0.09565362,132.86499)"><path
         d="m 454.94,203.12 v 0 c 19.58,18.08 41.56,23.85 66.16,17.78 17.18,-4.2 28.06,-17.26 28.43,-35.03 0.6,-34.44 0.23,-68.87 0.38,-103.377 0,-2.926 -0.9,-3.901 -3.9,-3.826 -4.95,0.225 -9.9,0 -14.85,0.075 -10.81,0.3 -18.23,7.952 -18.23,19.204 -0.15,19.804 -0.08,39.604 -0.08,59.484 0,1.8 0.08,3.6 0,5.41 -0.37,21.52 -12.37,30.98 -33.6,26.63 -4.65,-0.98 -9.08,-2.7 -13.13,-5.11 -7.35,-4.35 -11.7,-9.67 -11.48,-19.35 0.75,-26.78 0.15,-53.64 0.38,-80.417 0.07,-4.651 -0.98,-6.451 -5.85,-5.926 -4.2,0.45 -8.55,0 -12.83,0.075 -11.55,0.225 -18.98,7.877 -19.05,19.804 0,36.084 0,72.094 0,108.174 0,15.53 0,31.06 0,46.58 0.07,12.38 6.3,18.76 18.53,18.98 4.8,0.15 9.6,-0.3 14.17,0.38 4.73,0.75 5.03,-1.28 5.03,-5.03 -0.15,-21.15 -0.08,-42.31 -0.08,-64.51 z"
         style="fill:#ffffff;fill-opacity:1;fill-rule:nonzero;stroke:none"
         transform="matrix(0.2037479,5.6928005e-8,-5.21136e-8,-0.20347312,267.33333,94.4)"
         clip-path="url(#clipPath6)"
         id="path27" /><path
         d="m 383.01,177.76 v 0 c -12.9,11.26 -27.31,16.58 -43.81,16.13 -5.02,-0.15 -9.75,-1.42 -13.95,-4.27 -3.38,-2.18 -5.78,-5.26 -5.48,-9.46 0.3,-4.2 3.6,-6.15 6.98,-7.5 9.45,-3.75 19.58,-4.87 29.48,-7.12 8.78,-2.03 17.4,-4.36 25.35,-8.71 27.08,-14.85 28.88,-52.06 3.23,-69.311 -15,-10.052 -32.11,-12.153 -49.73,-11.253 -19.06,1.051 -36.61,6.602 -52.14,18.079 -3.22,2.326 -3.97,4.426 -1.35,7.505 0.3,0.37 0.45,0.82 0.68,1.2 8.17,16.13 15.38,19.13 31.5,9.97 11.33,-6.45 24.01,-8.7 37.13,-7.12 3.9,0.45 7.5,1.57 10.66,3.9 7.65,5.55 6.97,14.78 -1.58,18.83 -8.78,4.12 -18.53,5.02 -27.98,7.2 -7.65,1.65 -15.3,3.53 -22.58,6.6 -14.32,6.08 -23.78,15.9 -25.05,32.11 -1.28,17.7 5.92,31.13 21.15,39.91 16.58,9.6 34.58,10.35 52.96,7.2 8.85,-1.5 17.48,-4.2 25.43,-8.55 8.93,-4.8 11.55,-12.68 7.05,-21.53 -2.33,-4.58 -5.1,-8.93 -7.95,-13.81 z"
         style="fill:#ffffff;fill-opacity:1;fill-rule:nonzero;stroke:none"
         transform="matrix(0.2037479,5.6928005e-8,-5.21136e-8,-0.20347312,267.33333,94.4)"
         clip-path="url(#clipPath7)"
         id="path28" /><path
         d="m 1227.64,202.22 v 0 c 8.47,7.65 17.03,14.1 27.23,17.93 16.12,5.92 17.1,5.4 17.1,-11.1 0,-4.28 -0.08,-8.56 0,-12.83 0.15,-5.7 -2.63,-8.25 -8.1,-8.4 -7.05,-0.23 -13.95,-0.83 -20.55,-3.38 -11.41,-4.5 -16.21,-11.4 -16.21,-23.56 0,-25.43 -0.15,-50.86 0.15,-76.287 0,-4.726 -1.05,-6.451 -5.92,-5.926 -4.2,0.45 -8.55,0 -12.83,0.075 -11.55,0.15 -18.45,7.127 -18.53,19.204 -0.07,22.054 -0.07,44.114 -0.07,66.164 0,12.83 0,25.66 0.07,38.48 0,10.51 5.55,16.13 16.05,16.73 1.35,0.08 2.7,0.08 4.06,0 5.32,-0.07 12.15,1.73 15.67,-0.82 3.9,-2.85 0.45,-10.13 1.88,-16.28 z"
         style="fill:#ffffff;fill-opacity:1;fill-rule:nonzero;stroke:none"
         transform="matrix(0.2037479,5.6928005e-8,-5.21136e-8,-0.20347312,267.33333,94.4)"
         clip-path="url(#clipPath8)"
         id="path29" /><path
         d="m 833.08,137.85 v 0 c -3.23,-13.57 -10.8,-23.93 -24.91,-27.38 -14.7,-3.67 -27.38,1.35 -38.18,11.63 -2.25,2.18 -3.07,4.73 -2.92,7.88 0.15,6.75 0,13.5 0,20.25 0,5.63 0.45,11.25 -0.08,16.88 -0.52,5.78 1.65,9.83 6.08,13.28 11.63,9 24.38,12.75 38.48,7.35 14.03,-5.33 20.4,-16.73 22.28,-31.13 0.9,-6.3 0.67,-12.6 -0.75,-18.76 z m 35.1,41.94 v 0 c -9.22,30.76 -35.85,47.33 -67.43,42.53 -13.13,-2.02 -23.78,-8.7 -33.68,-19.5 0,4.72 -0.23,7.65 0.07,10.58 0.53,4.57 -0.97,6.52 -5.85,6.07 -4.5,-0.45 -9,0 -13.5,-0.15 -11.33,-0.45 -18.23,-7.72 -18.3,-18.98 -0.08,-17.4 0,-34.73 0,-52.06 0,-34.21 -0.08,-68.413 0,-102.62 0,-11.553 7.57,-19.279 18.75,-19.429 4.5,-0.075 9,0.3 13.5,-0.075 4.65,-0.451 5.48,1.5 5.48,5.701 -0.23,19.804 -0.15,39.608 -0.08,59.413 0,1.575 -1.12,3.6 1.2,4.651 27.01,-32.407 82.97,-24.681 98.64,20.179 7.35,21 7.65,42.46 1.2,63.69 z"
         style="fill:#ffffff;fill-opacity:1;fill-rule:nonzero;stroke:none"
         transform="matrix(0.2037479,5.6928005e-8,-5.21136e-8,-0.20347312,267.33333,94.4)"
         clip-path="url(#clipPath9)"
         id="path30" /><path
         d="m 984.53,142.51 v 0 c -2.33,-14.11 -8.41,-25.81 -22.58,-30.99 -14.48,-5.25 -27.38,-1.12 -38.93,8.33 -3.83,3.15 -5.93,6.83 -5.48,12.15 0.53,6.08 0.15,12.16 0.15,18.23 0,5.85 0.3,11.7 -0.15,17.56 -0.37,5.25 1.73,8.92 5.55,12.15 12.68,10.8 30.31,13.28 43.36,5.93 13.5,-7.66 20.93,-25.51 18.08,-43.36 z m 31.73,43.21 v 0 c -15.53,40.88 -65.19,50.41 -96.17,19.57 -0.75,-0.67 -1.35,-1.2 -2.32,-0.6 -0.38,14.71 -0.38,14.71 -15.38,14.63 -0.45,0 -0.9,0 -1.35,0 -14.1,0 -20.78,-6.67 -20.78,-20.55 0,-47.79 0.52,-95.57 -0.23,-143.283 -0.37,-22.805 5.11,-30.607 29.33,-29.481 6.38,0.3 8.71,1.05 8.48,8.251 -0.6,20.33 -0.22,40.734 -0.22,61.364 2.92,-0.375 3.82,-2.401 5.25,-3.751 23.32,-22.655 63.46,-20.93 83.33,4.801 21.08,27.229 21.83,58.209 10.06,89.049 z"
         style="fill:#ffffff;fill-opacity:1;fill-rule:nonzero;stroke:none"
         transform="matrix(0.2037479,5.6928005e-8,-5.21136e-8,-0.20347312,267.33333,94.4)"
         clip-path="url(#clipPath10)"
         id="path31" /><path
         d="m 672.85,136.58 v 0 c -4.65,-17.18 -17.02,-27.23 -33.98,-27.23 -16.65,0 -29.4,10.35 -33.75,27.53 -1.05,4.13 -1.73,8.33 -1.58,10.88 -0.07,20.4 9.23,35.63 23.71,40.51 21.82,7.42 43.5,-6.53 46.73,-30.31 0.97,-7.13 0.75,-14.25 -1.13,-21.38 z m -34.13,86.79 v 0 c -42.9,-0.3 -73.51,-30.6 -73.58,-72.99 0,-43.58 30.23,-74.114 73.58,-74.114 43.51,-0.075 74.34,30.384 74.49,73.514 0.15,42.54 -31.58,73.89 -74.49,73.59 z"
         style="fill:#ffffff;fill-opacity:1;fill-rule:nonzero;stroke:none"
         transform="matrix(0.2037479,5.6928005e-8,-5.21136e-8,-0.20347312,267.33333,94.4)"
         clip-path="url(#clipPath11)"
         id="path32" /><path
         d="m 1136.65,163.89 v 0 c -10.13,0.15 -20.18,0 -30.31,0 -9.67,0 -19.35,0.22 -29.03,-0.08 -4.12,-0.07 -4.95,1.2 -3.97,5.03 3.75,14.77 16.58,24.08 33.3,23.93 17.48,-0.23 30.16,-9.61 33.53,-24.68 0.75,-3.38 -0.15,-4.28 -3.52,-4.2 z m 38.93,-16.51 v 0 c -0.38,6.68 -1.2,13.5 -2.78,20.03 -6,25.28 -18.67,45.84 -45.3,52.89 -27.23,7.2 -52.66,2.47 -72.84,-18.38 -21.45,-22.21 -25.73,-49.06 -16.65,-77.72 8.85,-27.754 29.4,-42.833 57.83,-46.883 21.61,-3.151 42.23,-0.15 60.99,11.702 6.67,4.276 7.65,8.777 3.45,15.381 -2.78,4.35 -5.78,8.55 -8.55,12.98 -1.35,2.25 -2.48,2.55 -4.58,0.75 -6.83,-6.01 -15.23,-8.63 -23.93,-10.21 -16.88,-3 -32.4,-0.82 -43.95,13.66 -2.41,3 -4.43,6.37 -2.33,10.5 2.1,4.2 5.78,5.1 10.13,5.1 12.9,-0.15 25.73,-0.08 38.55,-0.08 13.28,0 26.63,-0.07 39.91,0 7.27,0.08 10.57,3.08 10.05,10.28 z"
         style="fill:#ffffff;fill-opacity:1;fill-rule:nonzero;stroke:none"
         transform="matrix(0.2037479,5.6928005e-8,-5.21136e-8,-0.20347312,267.33333,94.4)"
         clip-path="url(#clipPath12)"
         id="path33" /><path
         d="m 940.19,1.5502 v 0 l -0.07,11.2528 h 8.03 V 1.5502 Z"
         style="fill:#03a877;fill-opacity:1;fill-rule:nonzero;stroke:none"
         transform="matrix(0.2037479,5.6928005e-8,-5.21136e-8,-0.20347312,267.33333,94.4)"
         clip-path="url(#clipPath13)"
         id="path34" /><path
         d="m 954.07,24.655 v 0 c 0,3.226 0.6,6.227 1.65,9.152 1.13,2.851 2.7,5.401 4.8,7.577 2.1,2.175 4.58,3.826 7.5,5.101 2.93,1.275 6.23,1.95 9.9,1.95 4.73,0 8.78,-1.05 12.23,-3.075 3.45,-2.101 6,-4.876 7.73,-8.327 l -9.38,-3.001 c -1.12,1.951 -2.62,3.451 -4.5,4.501 -1.87,1.125 -3.97,1.651 -6.3,1.651 -1.88,0 -3.68,-0.451 -5.4,-1.201 -1.65,-0.75 -3.08,-1.8 -4.35,-3.225 -1.2,-1.351 -2.18,-3.001 -2.85,-4.876 -0.75,-1.876 -1.05,-3.976 -1.05,-6.227 0,-2.25 0.37,-4.276 1.12,-6.226 0.75,-1.876 1.73,-3.526 3,-4.951 1.28,-1.426 2.7,-2.476 4.35,-3.301 1.73,-0.7501 3.45,-1.1252 5.33,-1.1252 1.2,0 2.4,0.1501 3.53,0.4502 1.2,0.375 2.25,0.825 3.22,1.35 0.98,0.6 1.8,1.276 2.55,2.026 0.75,0.825 1.28,1.65 1.65,2.475 l 9.45,-2.775 C 996.75,9.1269 994.2,6.2762 990.6,4.1008 987.08,1.8503 982.88,0.80005 978,0.72504 c -3.6,0 -6.83,0.67516 -9.75,1.95046 -3,1.2752 -5.48,3.0006 -7.58,5.2511 -2.1,2.1754 -3.67,4.7264 -4.8,7.5764 -1.2,2.851 -1.72,5.927 -1.8,9.152 z"
         style="fill:#03a877;fill-opacity:1;fill-rule:nonzero;stroke:none"
         transform="matrix(0.2037479,5.6928005e-8,-5.21136e-8,-0.20347312,267.33333,94.4)"
         clip-path="url(#clipPath14)"
         id="path35" /><path
         d="m 1010.55,24.58 v 0 c 0,-2.25 0.38,-4.276 1.05,-6.151 0.75,-1.876 1.73,-3.526 2.93,-4.876 1.28,-1.425 2.7,-2.476 4.35,-3.226 1.65,-0.825 3.53,-1.2001 5.4,-1.2001 1.95,0 3.75,0.3751 5.4,1.2001 1.73,0.75 3.15,1.876 4.35,3.301 1.28,1.425 2.25,3.076 2.93,4.951 0.67,1.875 1.05,3.901 1.05,6.151 0,2.176 -0.38,4.201 -1.05,6.077 -0.75,1.95 -1.73,3.6 -2.93,4.951 -1.27,1.425 -2.7,2.55 -4.35,3.3 -1.72,0.826 -3.52,1.201 -5.47,1.201 -1.88,0 -3.6,-0.45 -5.25,-1.276 -1.73,-0.825 -3.15,-1.95 -4.35,-3.3 -1.28,-1.426 -2.26,-3.076 -2.93,-5.026 -0.75,-1.876 -1.13,-3.901 -1.13,-6.077 z m 13.73,-23.70491 v 0 c -3.6,0 -6.9,0.60011 -9.75,1.87541 -2.93,1.2753 -5.4,3.0006 -7.43,5.1761 -2.1,2.1754 -3.67,4.7264 -4.8,7.5764 -1.12,2.926 -1.65,6.002 -1.65,9.152 -0.07,3.151 0.53,6.152 1.65,9.077 1.05,2.926 2.7,5.476 4.73,7.652 2.1,2.175 4.57,3.901 7.5,5.176 2.85,1.275 6.15,1.95 9.68,1.95 3.6,0 6.82,-0.6 9.75,-1.875 2.92,-1.35 5.4,-3.076 7.5,-5.176 2.02,-2.176 3.68,-4.726 4.8,-7.652 1.13,-2.85 1.65,-5.926 1.65,-9.077 0,-3.15 -0.52,-6.226 -1.65,-9.077 -1.12,-2.925 -2.7,-5.476 -4.8,-7.6514 -2.03,-2.1755 -4.5,-3.9008 -7.43,-5.1761 -2.92,-1.3503 -6.15,-1.95041 -9.75,-1.95041 z"
         style="fill:#03a877;fill-opacity:1;fill-rule:nonzero;stroke:none"
         transform="matrix(0.2037479,5.6928005e-8,-5.21136e-8,-0.20347312,267.33333,94.4)"
         clip-path="url(#clipPath15)"
         id="path36" /><path
         d="m 1124.72,1.9253 v 0 h -9.67 V 27.656 c -0.08,4.276 -0.75,7.426 -2.18,9.452 -1.42,1.95 -3.45,2.926 -6.15,2.926 -2.78,0 -5.25,-0.976 -7.5,-3.001 -2.25,-2.026 -3.9,-4.651 -4.88,-7.877 l 0.08,-27.3057 h -9.68 l -0.07,25.7307 c 0,4.351 -0.68,7.501 -2.1,9.452 -1.43,2.025 -3.45,3.001 -6.08,3.001 -2.78,-0.075 -5.33,-1.051 -7.58,-3.076 -2.25,-1.951 -3.9,-4.576 -4.87,-7.802 V 1.7753 h -9.68 l -0.07,45.9847 h 8.77 l 0.08,-9.227 c 1.8,3.226 4.2,5.776 7.12,7.502 2.93,1.725 6.3,2.55 10.13,2.625 3.83,0 6.83,-1.05 9.08,-3 2.17,-2.026 3.52,-4.501 4.05,-7.502 1.95,3.451 4.35,6.001 7.27,7.802 2.93,1.8 6.3,2.7 10.05,2.7 2.71,0 4.96,-0.45 6.76,-1.5 1.72,-1.05 3.15,-2.4 4.27,-4.051 1.05,-1.725 1.73,-3.676 2.18,-6.001 0.45,-2.251 0.6,-4.576 0.6,-7.127 z"
         style="fill:#03a877;fill-opacity:1;fill-rule:nonzero;stroke:none"
         transform="matrix(0.2037479,5.6928005e-8,-5.21136e-8,-0.20347312,267.33333,94.4)"
         clip-path="url(#clipPath16)"
         id="path37" /><path
         d="m 1133.27,1.9253 v 0 11.2527 l 7.95,0.075 V 1.9253 Z"
         style="fill:#03a877;fill-opacity:1;fill-rule:nonzero;stroke:none"
         transform="matrix(0.2037479,5.6928005e-8,-5.21136e-8,-0.20347312,267.33333,94.4)"
         clip-path="url(#clipPath17)"
         id="path38" /><path
         d="m 1172.43,9.4269 v 0 c 2.17,0 4.05,0.4501 5.85,1.2751 1.73,0.825 3.23,1.951 4.5,3.376 1.28,1.425 2.25,3.076 2.93,4.876 0.67,1.875 1.05,3.826 1.05,5.851 0,2.101 -0.38,4.051 -1.05,5.927 -0.68,1.95 -1.58,3.6 -2.78,5.026 -1.2,1.425 -2.62,2.625 -4.35,3.45 -1.65,0.901 -3.45,1.351 -5.48,1.351 -3,0 -5.62,-0.976 -7.95,-2.926 -2.32,-1.95 -4.05,-4.276 -5.32,-7.051 l 0.07,-12.153 c 0.3,-1.35 0.98,-2.551 1.8,-3.601 0.9,-1.125 1.95,-2.1 3.08,-2.851 1.2,-0.825 2.47,-1.5 3.82,-1.95 1.35,-0.375 2.63,-0.6001 3.83,-0.6001 z m 2.62,-8.2518 v 0 c -3.52,0 -6.75,0.8252 -9.6,2.4756 -2.85,1.6503 -5.1,3.9008 -6.67,6.6763 V 2.0003 h -8.55 l -0.15,64.1387 9.67,0.075 0.08,-26.931 c 1.8,2.926 4.05,5.252 6.82,6.977 2.7,1.65 5.93,2.55 9.61,2.55 3.07,0 5.85,-0.675 8.32,-1.95 2.55,-1.35 4.73,-3.076 6.53,-5.251 1.8,-2.251 3.15,-4.801 4.12,-7.652 0.98,-2.925 1.43,-5.926 1.5,-9.077 0,-3.3 -0.6,-6.376 -1.65,-9.302 -1.12,-2.85 -2.7,-5.326 -4.57,-7.5014 -1.95,-2.1754 -4.28,-3.8258 -6.9,-5.1011 -2.7,-1.2002 -5.55,-1.8004 -8.56,-1.8004 z"
         style="fill:#03a877;fill-opacity:1;fill-rule:nonzero;stroke:none"
         transform="matrix(0.2037479,5.6928005e-8,-5.21136e-8,-0.20347312,267.33333,94.4)"
         clip-path="url(#clipPath18)"
         id="path39" /><path
         d="m 1229.06,39.733 v 0 c -3.75,-0.075 -7.12,-0.975 -9.97,-2.55 -2.93,-1.65 -5.03,-3.976 -6.23,-6.977 l 0.08,-28.1307 h -9.68 l -0.08,45.9847 h 8.93 l 0.08,-10.277 c 1.57,3.151 3.6,5.701 6.15,7.652 2.55,1.875 5.25,2.925 8.17,3.15 0.6,0 1.13,0 1.5,0 0.38,0 0.68,-0.075 0.98,-0.075 z"
         style="fill:#03a877;fill-opacity:1;fill-rule:nonzero;stroke:none"
         transform="matrix(0.2037479,5.6928005e-8,-5.21136e-8,-0.20347312,267.33333,94.4)"
         clip-path="url(#clipPath19)"
         id="path40" /><path
         d="m 130.9,234.48 v 0 C 113.27,214.75 85.288,210.25 66.16,223.97 L 29.254,179.11 c 3.226,-2.4 6.601,-4.57 10.052,-6.52 -20.853,10.42 -35.1804,31.95 -35.1804,56.78 0,35.11 28.4294,63.54 63.5344,63.54 33.31,0 60.68,-25.73 63.24,-58.43 z"
         style="fill:#03a877;fill-opacity:1;fill-rule:nonzero;stroke:none"
         clip-path="url(#clipPath20)"
         id="path41"
         transform="matrix(0.2037479,5.6928005e-8,-5.21136e-8,-0.20347312,267.33333,94.4)" /><path
         d="m 131.12,229.37 v 0 c 0,-35.03 -28.43,-63.46 -63.46,-63.46 -10.201,0 -19.878,2.4 -28.354,6.68 -3.451,1.95 -6.826,4.12 -10.052,6.52 l 36.906,44.86 c 19.128,-13.72 47.11,-9.22 64.74,10.51 0.15,-1.65 0.22,-3.38 0.22,-5.11 z"
         style="fill:#42b180;fill-opacity:1;fill-rule:nonzero;stroke:none"
         transform="matrix(0.2037479,5.6928005e-8,-5.21136e-8,-0.20347312,267.33333,94.4)"
         clip-path="url(#clipPath21)"
         id="path42" /><path
         d="m 222.18,186.02 v 0 c -23.4,-20.86 -56.7,-23.41 -82.51,-8.71 11.25,6.75 21.68,15.68 30.68,26.56 13.43,16.35 21.83,35.03 25.28,53.86 l 32.25,28.73 c 0,0 0.08,0 0.08,-0.07 26.1,-29.26 23.55,-74.27 -5.78,-100.37 z"
         style="fill:#0e453a;fill-opacity:1;fill-rule:nonzero;stroke:none"
         transform="matrix(0.2037479,5.6928005e-8,-5.21136e-8,-0.20347312,267.33333,94.4)"
         clip-path="url(#clipPath22)"
         id="path43" /><path
         d="m 195.63,257.66 v 0 c -3.45,-18.76 -11.85,-37.44 -25.28,-53.79 -9,-10.88 -19.43,-19.81 -30.68,-26.56 -6.52,3.68 -12.6,8.56 -17.85,14.48 0,0 -0.08,0 -0.08,0.08 z"
         style="fill:#1b604f;fill-opacity:1;fill-rule:nonzero;stroke:none"
         transform="matrix(0.2037479,5.6928005e-8,-5.21136e-8,-0.20347312,267.33333,94.4)"
         clip-path="url(#clipPath23)"
         id="path44" /><path
         d="m 195.63,257.66 v 0 l -73.89,-65.79 c 0,-0.08 0.08,-0.08 0.08,-0.08 5.25,-5.92 11.33,-10.8 17.85,-14.48 -31.8,-19.28 -70.134,-21.6 -100.364,-4.72 8.476,-4.28 18.153,-6.68 28.354,-6.68 35.03,0 63.46,28.43 63.46,63.46 0,1.73 -0.07,3.46 -0.15,5.11 0.53,0.6 1.05,1.2 1.58,1.87 17.47,21.31 16.95,50.86 -0.68,67.44 L 167.43,347 c 24.75,-22.05 34.28,-55.89 28.2,-89.34 z"
         style="fill:#38af86;fill-opacity:1;fill-rule:nonzero;stroke:none"
         transform="matrix(0.2037479,5.6928005e-8,-5.21136e-8,-0.20347312,267.33333,94.4)"
         clip-path="url(#clipPath24)"
         id="path45" /><path
         d="m 0,197.64 v 0 C 0,122.7 61.584,62.839 134.72,70.19 c 54.76,5.476 99.92,49.74 108.77,106.37 1.05,6.98 1.57,13.88 1.65,20.63 z"
         style="fill:#03a877;fill-opacity:1;fill-rule:nonzero;stroke:none"
         transform="matrix(0.2037479,5.6928005e-8,-5.21136e-8,-0.20347312,267.33333,94.4)"
         clip-path="url(#clipPath25)"
         id="path46" /><path
         d="m 122.57,98.621 v 0 c -36.982,0 -67.137,31.429 -67.137,70.069 H 67.66 c 0,-31.59 24.604,-57.32 54.91,-57.32 30.23,0 54.83,25.73 54.83,57.32 h 12.23 c 0,-38.64 -30.08,-70.069 -67.06,-70.069 z"
         style="fill:#ffffff;fill-opacity:1;fill-rule:nonzero;stroke:none"
         transform="matrix(0.2037479,5.6928005e-8,-5.21136e-8,-0.20347312,267.33333,94.4)"
         clip-path="url(#clipPath26)"
         id="path47" /></g></g></svg>
